# xmcd CD database file
#
# Track frame offsets:
#	150
#	16159
#	34281
#	45450
#	54633
#	66794
#	84425
#	95823
#	118353
#	136805
#	154074
#	174414
#
# Disc length: 2878 seconds
#
# Revision: 1
# Processed by: cddbd v1.4PL0 Copyright (c) Steve Scherf et al.
# Submitted via: Feurio! 1.66 - http://www.feurio.com
#
DISCID=9d0b3c0c
DTITLE=Rainer Baumann Band - Meet Me In The Bottom
DYEAR=1980
DGENRE=Blues
TTITLE0=Meet Me In The Bottom
TTITLE1=High Cost Of Love
TTITLE2=Crosscut Saw
TTITLE3=A Man Of Many Words
TTITLE4=I Had A Dream
TTITLE5=To Jeff
TTITLE6=Messin' With The Kid
TTITLE7=Five Long Years
TTITLE8=Big Legged Woman
TTITLE9=Hoochie Coochie Man
TTITLE10=Checkin' On My Baby
TTITLE11=Help Me (Live)
EXTD=
EXTT0=
EXTT1=
EXTT2=
EXTT3=
EXTT4=
EXTT5=
EXTT6=
EXTT7=
EXTT8=
EXTT9=
EXTT10=
EXTT11=
PLAYORDER=
